<?xml version="1.0" standalone="no"?>
<!DOCTYPE svg PUBLIC "-//W3C//DTD SVG 20010904//EN"
 "http://www.w3.org/TR/2001/REC-SVG-20010904/DTD/svg10.dtd">
<svg xmlns="http://www.w3.org/2000/svg" viewBox="0 0 200 200">
  <g transform="translate(0,200) scale(0.1,-0.1)" fill="#FFFFFF">
    <path d="M425 1193 c-70 -14 -65 -9 -65 -69 0 -46 3 -55 15 -50 55 21 147 29 200 17 103 -23 150 -96 143 -221 -6 -115 -73 -180 -185 -180 -84 0 -83 -2 -83 116 l0 104 -55 0 -55 0 0 -144 0 -144 33 -12 c56 -21 237 -25 294 -6 138 46 211 202 169 363 -29 117 -88 180 -197 214 -56 18 -161 24 -214 12z"/>
    <path d="M1150 890 l0 -300 55 0 55 0 0 130 0 130 30 0 c27 0 31 5 43 48 l14 47 -41 5 -41 5 -3 118 -3 117 -54 0 -55 0 0 -300z"/>
    <path d="M1520 1070 l0 -120 -30 0 c-25 0 -30 -5 -39 -37 -17 -59 -15 -63 29 -63 l40 0 0 -130 0 -131 58 3 57 3 3 298 2 297 -60 0 -60 0 0 -120z"/>
    <path d="M962 1085 c-49 -21 -58 -80 -17 -120 30 -30 64 -32 99 -4 18 14 26 30 26 53 0 63 -49 95 -108 71z"/>
    <path d="M942 820 c-44 -42 -9 -130 51 -130 40 0 77 36 77 76 0 67 -79 100 -128 54z"/>
  </g>
</svg>
